<?xml version="1.0" encoding="UTF-8" standalone="no"?>
<svg width="800" height="726" viewBox="0 0 800 726" fill="none" xmlns="http://www.w3.org/2000/svg">
<rect width="800" height="726" fill="#FFFBF7"/>
<path d="M138.242 93H132.207V80.6758H120.898V93H114.844V64.4453H120.898V75.6367H132.207V64.4453H138.242V93ZM141.875 71.1641H148.398L152.52 83.4492C152.65 83.8398 152.76 84.237 152.852 84.6406C152.943 85.0443 153.021 85.4609 153.086 85.8906C153.151 86.3203 153.203 86.7695 153.242 87.2383H153.359C153.438 86.5352 153.542 85.8776 153.672 85.2656C153.815 84.6536 153.991 84.0482 154.199 83.4492L158.242 71.1641H164.629L155.391 95.793C154.831 97.3034 154.102 98.5599 153.203 99.5625C152.305 100.578 151.27 101.34 150.098 101.848C148.939 102.355 147.663 102.609 146.27 102.609C145.592 102.609 145.007 102.57 144.512 102.492C144.017 102.427 143.594 102.355 143.242 102.277V97.5508C143.516 97.6159 143.861 97.6745 144.277 97.7266C144.694 97.7786 145.13 97.8047 145.586 97.8047C146.419 97.8047 147.135 97.6289 147.734 97.2773C148.333 96.9258 148.835 96.4505 149.238 95.8516C149.642 95.2656 149.961 94.6211 150.195 93.918L150.547 92.8438L141.875 71.1641ZM179.922 70.7539C182.383 70.7539 184.368 71.7109 185.879 73.625C187.402 75.5391 188.164 78.3451 188.164 82.043C188.164 84.5169 187.806 86.6003 187.09 88.293C186.374 89.9727 185.384 91.2422 184.121 92.1016C182.858 92.9609 181.406 93.3906 179.766 93.3906C178.711 93.3906 177.806 93.2604 177.051 93C176.296 92.7266 175.651 92.3815 175.117 91.9648C174.583 91.5352 174.121 91.0794 173.73 90.5977H173.418C173.522 91.1185 173.6 91.6523 173.652 92.1992C173.704 92.7461 173.73 93.2799 173.73 93.8008V102.609H167.773V71.1641H172.617L173.457 73.9961H173.73C174.121 73.4102 174.596 72.8698 175.156 72.375C175.716 71.8802 176.387 71.4896 177.168 71.2031C177.962 70.9036 178.88 70.7539 179.922 70.7539ZM178.008 75.5195C176.966 75.5195 176.139 75.7344 175.527 76.1641C174.915 76.5938 174.466 77.2383 174.18 78.0977C173.906 78.957 173.757 80.0443 173.73 81.3594V82.0039C173.73 83.4102 173.861 84.6016 174.121 85.5781C174.395 86.5547 174.844 87.2969 175.469 87.8047C176.107 88.3125 176.979 88.5664 178.086 88.5664C178.997 88.5664 179.746 88.3125 180.332 87.8047C180.918 87.2969 181.354 86.5547 181.641 85.5781C181.94 84.5885 182.09 83.3841 182.09 81.9648C182.09 79.8294 181.758 78.2214 181.094 77.1406C180.43 76.0599 179.401 75.5195 178.008 75.5195ZM202.09 70.7539C204.108 70.7539 205.846 71.1445 207.305 71.9258C208.763 72.694 209.889 73.8138 210.684 75.2852C211.478 76.7565 211.875 78.5534 211.875 80.6758V83.5664H197.793C197.858 85.2461 198.359 86.5677 199.297 87.5312C200.247 88.4818 201.562 88.957 203.242 88.957C204.635 88.957 205.911 88.8138 207.07 88.5273C208.229 88.2409 209.421 87.8112 210.645 87.2383V91.8477C209.564 92.3815 208.431 92.7721 207.246 93.0195C206.074 93.2669 204.648 93.3906 202.969 93.3906C200.781 93.3906 198.841 92.987 197.148 92.1797C195.469 91.3724 194.147 90.1419 193.184 88.4883C192.233 86.8346 191.758 84.7513 191.758 82.2383C191.758 79.6862 192.188 77.5638 193.047 75.8711C193.919 74.1654 195.13 72.8893 196.68 72.043C198.229 71.1836 200.033 70.7539 202.09 70.7539ZM202.129 74.9922C200.97 74.9922 200.007 75.3633 199.238 76.1055C198.483 76.8477 198.047 78.013 197.93 79.6016H206.289C206.276 78.7161 206.113 77.9284 205.801 77.2383C205.501 76.5482 205.046 76.0013 204.434 75.5977C203.835 75.194 203.066 74.9922 202.129 74.9922ZM228.906 70.7539C229.206 70.7539 229.551 70.7734 229.941 70.8125C230.345 70.8385 230.671 70.8776 230.918 70.9297L230.469 76.5156C230.273 76.4505 229.993 76.4049 229.629 76.3789C229.277 76.3398 228.971 76.3203 228.711 76.3203C227.943 76.3203 227.194 76.418 226.465 76.6133C225.749 76.8086 225.104 77.1276 224.531 77.5703C223.958 78 223.503 78.5729 223.164 79.2891C222.839 79.9922 222.676 80.8581 222.676 81.8867V93H216.719V71.1641H221.23L222.109 74.8359H222.402C222.832 74.0938 223.366 73.4167 224.004 72.8047C224.655 72.1797 225.391 71.6849 226.211 71.3203C227.044 70.9427 227.943 70.7539 228.906 70.7539ZM246.367 93H240.312V69.4844H232.559V64.4453H254.121V69.4844H246.367V93ZM267.051 70.7539C269.069 70.7539 270.807 71.1445 272.266 71.9258C273.724 72.694 274.85 73.8138 275.645 75.2852C276.439 76.7565 276.836 78.5534 276.836 80.6758V83.5664H262.754C262.819 85.2461 263.32 86.5677 264.258 87.5312C265.208 88.4818 266.523 88.957 268.203 88.957C269.596 88.957 270.872 88.8138 272.031 88.5273C273.19 88.2409 274.382 87.8112 275.605 87.2383V91.8477C274.525 92.3815 273.392 92.7721 272.207 93.0195C271.035 93.2669 269.609 93.3906 267.93 93.3906C265.742 93.3906 263.802 92.987 262.109 92.1797C260.43 91.3724 259.108 90.1419 258.145 88.4883C257.194 86.8346 256.719 84.7513 256.719 82.2383C256.719 79.6862 257.148 77.5638 258.008 75.8711C258.88 74.1654 260.091 72.8893 261.641 72.043C263.19 71.1836 264.993 70.7539 267.051 70.7539ZM267.09 74.9922C265.931 74.9922 264.967 75.3633 264.199 76.1055C263.444 76.8477 263.008 78.013 262.891 79.6016H271.25C271.237 78.7161 271.074 77.9284 270.762 77.2383C270.462 76.5482 270.007 76.0013 269.395 75.5977C268.796 75.194 268.027 74.9922 267.09 74.9922ZM286.152 81.8477L279.121 71.1641H285.879L290.117 78.1172L294.395 71.1641H301.152L294.043 81.8477L301.484 93H294.707L290.117 85.5195L285.508 93H278.75L286.152 81.8477ZM314.004 88.6445C314.655 88.6445 315.286 88.5794 315.898 88.4492C316.523 88.319 317.142 88.1562 317.754 87.9609V92.3945C317.116 92.681 316.322 92.9154 315.371 93.0977C314.434 93.293 313.405 93.3906 312.285 93.3906C310.983 93.3906 309.811 93.1823 308.77 92.7656C307.741 92.3359 306.927 91.6003 306.328 90.5586C305.742 89.5039 305.449 88.0391 305.449 86.1641V75.6367H302.598V73.1172L305.879 71.125L307.598 66.5156H311.406V71.1641H317.52V75.6367H311.406V86.1641C311.406 86.9974 311.641 87.6224 312.109 88.0391C312.591 88.4427 313.223 88.6445 314.004 88.6445ZM345.137 93L338.262 70.5977H338.086C338.112 71.1315 338.151 71.9388 338.203 73.0195C338.268 74.0872 338.327 75.2266 338.379 76.4375C338.431 77.6484 338.457 78.7422 338.457 79.7188V93H333.047V64.4453H341.289L348.047 86.2812H348.164L355.332 64.4453H363.574V93H357.93V79.4844C357.93 78.5859 357.943 77.5508 357.969 76.3789C358.008 75.207 358.053 74.0938 358.105 73.0391C358.158 71.9714 358.197 71.1706 358.223 70.6367H358.047L350.684 93H345.137ZM379.258 70.7148C382.188 70.7148 384.434 71.3529 385.996 72.6289C387.559 73.9049 388.34 75.8451 388.34 78.4492V93H384.18L383.027 90.0312H382.871C382.246 90.8125 381.608 91.4505 380.957 91.9453C380.306 92.4401 379.557 92.8047 378.711 93.0391C377.865 93.2734 376.836 93.3906 375.625 93.3906C374.336 93.3906 373.177 93.1432 372.148 92.6484C371.133 92.1536 370.332 91.3984 369.746 90.3828C369.16 89.3542 368.867 88.0521 368.867 86.4766C368.867 84.1589 369.681 82.4531 371.309 81.3594C372.936 80.2526 375.378 79.6406 378.633 79.5234L382.422 79.4062V78.4492C382.422 77.3034 382.122 76.4635 381.523 75.9297C380.924 75.3958 380.091 75.1289 379.023 75.1289C377.969 75.1289 376.934 75.2786 375.918 75.5781C374.902 75.8776 373.887 76.2552 372.871 76.7109L370.898 72.6875C372.057 72.0755 373.353 71.5938 374.785 71.2422C376.23 70.8906 377.721 70.7148 379.258 70.7148ZM382.422 82.8828L380.117 82.9609C378.19 83.013 376.849 83.3581 376.094 83.9961C375.352 84.6341 374.98 85.474 374.98 86.5156C374.98 87.4271 375.247 88.0781 375.781 88.4688C376.315 88.8464 377.012 89.0352 377.871 89.0352C379.147 89.0352 380.221 88.6576 381.094 87.9023C381.979 87.1471 382.422 86.0729 382.422 84.6797V82.8828ZM406.68 70.7539C406.979 70.7539 407.324 70.7734 407.715 70.8125C408.118 70.8385 408.444 70.8776 408.691 70.9297L408.242 76.5156C408.047 76.4505 407.767 76.4049 407.402 76.3789C407.051 76.3398 406.745 76.3203 406.484 76.3203C405.716 76.3203 404.967 76.418 404.238 76.6133C403.522 76.8086 402.878 77.1276 402.305 77.5703C401.732 78 401.276 78.5729 400.938 79.2891C400.612 79.9922 400.449 80.8581 400.449 81.8867V93H394.492V71.1641H399.004L399.883 74.8359H400.176C400.605 74.0938 401.139 73.4167 401.777 72.8047C402.428 72.1797 403.164 71.6849 403.984 71.3203C404.818 70.9427 405.716 70.7539 406.68 70.7539ZM418.613 62.6094V76.2031C418.613 77.0234 418.581 77.8438 418.516 78.6641C418.451 79.4844 418.379 80.3047 418.301 81.125H418.379C418.783 80.5521 419.193 79.9857 419.609 79.4258C420.039 78.8659 420.495 78.3255 420.977 77.8047L427.09 71.1641H433.809L425.137 80.6367L434.336 93H427.461L421.172 84.1523L418.613 86.2031V93H412.656V62.6094H418.613ZM457.5 71.1641V93H452.93L452.129 90.207H451.816C451.348 90.9492 450.762 91.5547 450.059 92.0234C449.355 92.4922 448.581 92.8372 447.734 93.0586C446.888 93.2799 446.009 93.3906 445.098 93.3906C443.535 93.3906 442.174 93.1172 441.016 92.5703C439.857 92.0104 438.952 91.1445 438.301 89.9727C437.663 88.8008 437.344 87.2773 437.344 85.4023V71.1641H443.301V83.918C443.301 85.4805 443.581 86.6589 444.141 87.4531C444.701 88.2474 445.592 88.6445 446.816 88.6445C448.027 88.6445 448.978 88.3711 449.668 87.8242C450.358 87.2643 450.84 86.4505 451.113 85.3828C451.4 84.3021 451.543 82.987 451.543 81.4375V71.1641H457.5ZM475.898 70.7539C478.359 70.7539 480.345 71.7109 481.855 73.625C483.379 75.5391 484.141 78.3451 484.141 82.043C484.141 84.5169 483.783 86.6003 483.066 88.293C482.35 89.9727 481.361 91.2422 480.098 92.1016C478.835 92.9609 477.383 93.3906 475.742 93.3906C474.688 93.3906 473.783 93.2604 473.027 93C472.272 92.7266 471.628 92.3815 471.094 91.9648C470.56 91.5352 470.098 91.0794 469.707 90.5977H469.395C469.499 91.1185 469.577 91.6523 469.629 92.1992C469.681 92.7461 469.707 93.2799 469.707 93.8008V102.609H463.75V71.1641H468.594L469.434 73.9961H469.707C470.098 73.4102 470.573 72.8698 471.133 72.375C471.693 71.8802 472.363 71.4896 473.145 71.2031C473.939 70.9036 474.857 70.7539 475.898 70.7539ZM473.984 75.5195C472.943 75.5195 472.116 75.7344 471.504 76.1641C470.892 76.5938 470.443 77.2383 470.156 78.0977C469.883 78.957 469.733 80.0443 469.707 81.3594V82.0039C469.707 83.4102 469.837 84.6016 470.098 85.5781C470.371 86.5547 470.82 87.2969 471.445 87.8047C472.083 88.3125 472.956 88.5664 474.062 88.5664C474.974 88.5664 475.723 88.3125 476.309 87.8047C476.895 87.2969 477.331 86.5547 477.617 85.5781C477.917 84.5885 478.066 83.3841 478.066 81.9648C478.066 79.8294 477.734 78.2214 477.07 77.1406C476.406 76.0599 475.378 75.5195 473.984 75.5195ZM499.922 93V64.4453H505.977V88H517.559V93H499.922ZM531.016 70.7148C533.945 70.7148 536.191 71.3529 537.754 72.6289C539.316 73.9049 540.098 75.8451 540.098 78.4492V93H535.938L534.785 90.0312H534.629C534.004 90.8125 533.366 91.4505 532.715 91.9453C532.064 92.4401 531.315 92.8047 530.469 93.0391C529.622 93.2734 528.594 93.3906 527.383 93.3906C526.094 93.3906 524.935 93.1432 523.906 92.6484C522.891 92.1536 522.09 91.3984 521.504 90.3828C520.918 89.3542 520.625 88.0521 520.625 86.4766C520.625 84.1589 521.439 82.4531 523.066 81.3594C524.694 80.2526 527.135 79.6406 530.391 79.5234L534.18 79.4062V78.4492C534.18 77.3034 533.88 76.4635 533.281 75.9297C532.682 75.3958 531.849 75.1289 530.781 75.1289C529.727 75.1289 528.691 75.2786 527.676 75.5781C526.66 75.8776 525.645 76.2552 524.629 76.7109L522.656 72.6875C523.815 72.0755 525.111 71.5938 526.543 71.2422C527.988 70.8906 529.479 70.7148 531.016 70.7148ZM534.18 82.8828L531.875 82.9609C529.948 83.013 528.607 83.3581 527.852 83.9961C527.109 84.6341 526.738 85.474 526.738 86.5156C526.738 87.4271 527.005 88.0781 527.539 88.4688C528.073 88.8464 528.77 89.0352 529.629 89.0352C530.905 89.0352 531.979 88.6576 532.852 87.9023C533.737 87.1471 534.18 86.0729 534.18 84.6797V82.8828ZM558.652 70.7539C560.983 70.7539 562.858 71.3919 564.277 72.668C565.697 73.931 566.406 75.9622 566.406 78.7617V93H560.449V80.2461C560.449 78.6836 560.163 77.5052 559.59 76.7109C559.03 75.9167 558.145 75.5195 556.934 75.5195C555.111 75.5195 553.867 76.138 553.203 77.375C552.539 78.612 552.207 80.3958 552.207 82.7266V93H546.25V71.1641H550.801L551.602 73.957H551.934C552.402 73.2018 552.982 72.5898 553.672 72.1211C554.375 71.6523 555.15 71.3073 555.996 71.0859C556.855 70.8646 557.741 70.7539 558.652 70.7539ZM578.926 102.609C575.879 102.609 573.548 102.076 571.934 101.008C570.332 99.9531 569.531 98.4688 569.531 96.5547C569.531 95.2396 569.941 94.1393 570.762 93.2539C571.582 92.3685 572.786 91.737 574.375 91.3594C573.763 91.099 573.229 90.6758 572.773 90.0898C572.318 89.4909 572.09 88.8594 572.09 88.1953C572.09 87.362 572.331 86.6719 572.812 86.125C573.294 85.5651 573.991 85.0182 574.902 84.4844C573.757 83.9896 572.845 83.1953 572.168 82.1016C571.504 81.0078 571.172 79.7188 571.172 78.2344C571.172 76.6458 571.517 75.2982 572.207 74.1914C572.91 73.0716 573.926 72.2188 575.254 71.6328C576.595 71.0469 578.223 70.7539 580.137 70.7539C580.54 70.7539 581.009 70.7799 581.543 70.832C582.077 70.8841 582.565 70.9427 583.008 71.0078C583.464 71.0729 583.77 71.125 583.926 71.1641H591.543V74.1914L588.125 75.0703C588.438 75.5521 588.672 76.0664 588.828 76.6133C588.984 77.1602 589.062 77.7396 589.062 78.3516C589.062 80.6953 588.242 82.5247 586.602 83.8398C584.974 85.1419 582.708 85.793 579.805 85.793C579.115 85.7539 578.464 85.7018 577.852 85.6367C577.552 85.8711 577.324 86.1185 577.168 86.3789C577.012 86.6393 576.934 86.9128 576.934 87.1992C576.934 87.4857 577.051 87.7266 577.285 87.9219C577.533 88.1042 577.897 88.2474 578.379 88.3516C578.874 88.4427 579.486 88.4883 580.215 88.4883H583.926C586.322 88.4883 588.145 89.0026 589.395 90.0312C590.658 91.0599 591.289 92.5703 591.289 94.5625C591.289 97.1146 590.221 99.0938 588.086 100.5C585.964 101.906 582.91 102.609 578.926 102.609ZM579.18 98.7227C580.599 98.7227 581.816 98.5859 582.832 98.3125C583.861 98.0521 584.648 97.6745 585.195 97.1797C585.742 96.6979 586.016 96.1185 586.016 95.4414C586.016 94.8945 585.853 94.4583 585.527 94.1328C585.215 93.8203 584.733 93.599 584.082 93.4688C583.444 93.3385 582.624 93.2734 581.621 93.2734H578.535C577.806 93.2734 577.148 93.3906 576.562 93.625C575.99 93.8594 575.534 94.1849 575.195 94.6016C574.857 95.0312 574.688 95.526 574.688 96.0859C574.688 96.9062 575.078 97.5508 575.859 98.0195C576.654 98.4883 577.76 98.7227 579.18 98.7227ZM580.137 82.1602C581.257 82.1602 582.077 81.8151 582.598 81.125C583.118 80.4349 583.379 79.4974 583.379 78.3125C583.379 76.9974 583.105 76.0143 582.559 75.3633C582.025 74.6992 581.217 74.3672 580.137 74.3672C579.043 74.3672 578.223 74.6992 577.676 75.3633C577.129 76.0143 576.855 76.9974 576.855 78.3125C576.855 79.4974 577.122 80.4349 577.656 81.125C578.203 81.8151 579.03 82.1602 580.137 82.1602ZM615.195 71.1641V93H610.625L609.824 90.207H609.512C609.043 90.9492 608.457 91.5547 607.754 92.0234C607.051 92.4922 606.276 92.8372 605.43 93.0586C604.583 93.2799 603.704 93.3906 602.793 93.3906C601.23 93.3906 599.87 93.1172 598.711 92.5703C597.552 92.0104 596.647 91.1445 595.996 89.9727C595.358 88.8008 595.039 87.2773 595.039 85.4023V71.1641H600.996V83.918C600.996 85.4805 601.276 86.6589 601.836 87.4531C602.396 88.2474 603.288 88.6445 604.512 88.6445C605.723 88.6445 606.673 88.3711 607.363 87.8242C608.053 87.2643 608.535 86.4505 608.809 85.3828C609.095 84.3021 609.238 82.987 609.238 81.4375V71.1641H615.195ZM630.391 70.7148C633.32 70.7148 635.566 71.3529 637.129 72.6289C638.691 73.9049 639.473 75.8451 639.473 78.4492V93H635.312L634.16 90.0312H634.004C633.379 90.8125 632.741 91.4505 632.09 91.9453C631.439 92.4401 630.69 92.8047 629.844 93.0391C628.997 93.2734 627.969 93.3906 626.758 93.3906C625.469 93.3906 624.31 93.1432 623.281 92.6484C622.266 92.1536 621.465 91.3984 620.879 90.3828C620.293 89.3542 620 88.0521 620 86.4766C620 84.1589 620.814 82.4531 622.441 81.3594C624.069 80.2526 626.51 79.6406 629.766 79.5234L633.555 79.4062V78.4492C633.555 77.3034 633.255 76.4635 632.656 75.9297C632.057 75.3958 631.224 75.1289 630.156 75.1289C629.102 75.1289 628.066 75.2786 627.051 75.5781C626.035 75.8776 625.02 76.2552 624.004 76.7109L622.031 72.6875C623.19 72.0755 624.486 71.5938 625.918 71.2422C627.363 70.8906 628.854 70.7148 630.391 70.7148ZM633.555 82.8828L631.25 82.9609C629.323 83.013 627.982 83.3581 627.227 83.9961C626.484 84.6341 626.113 85.474 626.113 86.5156C626.113 87.4271 626.38 88.0781 626.914 88.4688C627.448 88.8464 628.145 89.0352 629.004 89.0352C630.28 89.0352 631.354 88.6576 632.227 87.9023C633.112 87.1471 633.555 86.0729 633.555 84.6797V82.8828ZM652.012 102.609C648.965 102.609 646.634 102.076 645.02 101.008C643.418 99.9531 642.617 98.4688 642.617 96.5547C642.617 95.2396 643.027 94.1393 643.848 93.2539C644.668 92.3685 645.872 91.737 647.461 91.3594C646.849 91.099 646.315 90.6758 645.859 90.0898C645.404 89.4909 645.176 88.8594 645.176 88.1953C645.176 87.362 645.417 86.6719 645.898 86.125C646.38 85.5651 647.077 85.0182 647.988 84.4844C646.842 83.9896 645.931 83.1953 645.254 82.1016C644.59 81.0078 644.258 79.7188 644.258 78.2344C644.258 76.6458 644.603 75.2982 645.293 74.1914C645.996 73.0716 647.012 72.2188 648.34 71.6328C649.681 71.0469 651.309 70.7539 653.223 70.7539C653.626 70.7539 654.095 70.7799 654.629 70.832C655.163 70.8841 655.651 70.9427 656.094 71.0078C656.549 71.0729 656.855 71.125 657.012 71.1641H664.629V74.1914L661.211 75.0703C661.523 75.5521 661.758 76.0664 661.914 76.6133C662.07 77.1602 662.148 77.7396 662.148 78.3516C662.148 80.6953 661.328 82.5247 659.688 83.8398C658.06 85.1419 655.794 85.793 652.891 85.793C652.201 85.7539 651.549 85.7018 650.938 85.6367C650.638 85.8711 650.41 86.1185 650.254 86.3789C650.098 86.6393 650.02 86.9128 650.02 87.1992C650.02 87.4857 650.137 87.7266 650.371 87.9219C650.618 88.1042 650.983 88.2474 651.465 88.3516C651.96 88.4427 652.572 88.4883 653.301 88.4883H657.012C659.408 88.4883 661.23 89.0026 662.48 90.0312C663.743 91.0599 664.375 92.5703 664.375 94.5625C664.375 97.1146 663.307 99.0938 661.172 100.5C659.049 101.906 655.996 102.609 652.012 102.609ZM652.266 98.7227C653.685 98.7227 654.902 98.5859 655.918 98.3125C656.947 98.0521 657.734 97.6745 658.281 97.1797C658.828 96.6979 659.102 96.1185 659.102 95.4414C659.102 94.8945 658.939 94.4583 658.613 94.1328C658.301 93.8203 657.819 93.599 657.168 93.4688C656.53 93.3385 655.71 93.2734 654.707 93.2734H651.621C650.892 93.2734 650.234 93.3906 649.648 93.625C649.076 93.8594 648.62 94.1849 648.281 94.6016C647.943 95.0312 647.773 95.526 647.773 96.0859C647.773 96.9062 648.164 97.5508 648.945 98.0195C649.74 98.4883 650.846 98.7227 652.266 98.7227ZM653.223 82.1602C654.342 82.1602 655.163 81.8151 655.684 81.125C656.204 80.4349 656.465 79.4974 656.465 78.3125C656.465 76.9974 656.191 76.0143 655.645 75.3633C655.111 74.6992 654.303 74.3672 653.223 74.3672C652.129 74.3672 651.309 74.6992 650.762 75.3633C650.215 76.0143 649.941 76.9974 649.941 78.3125C649.941 79.4974 650.208 80.4349 650.742 81.125C651.289 81.8151 652.116 82.1602 653.223 82.1602ZM677.246 70.7539C679.264 70.7539 681.003 71.1445 682.461 71.9258C683.919 72.694 685.046 73.8138 685.84 75.2852C686.634 76.7565 687.031 78.5534 687.031 80.6758V83.5664H672.949C673.014 85.2461 673.516 86.5677 674.453 87.5312C675.404 88.4818 676.719 88.957 678.398 88.957C679.792 88.957 681.068 88.8138 682.227 88.5273C683.385 88.2409 684.577 87.8112 685.801 87.2383V91.8477C684.72 92.3815 683.587 92.7721 682.402 93.0195C681.23 93.2669 679.805 93.3906 678.125 93.3906C675.938 93.3906 673.997 92.987 672.305 92.1797C670.625 91.3724 669.303 90.1419 668.34 88.4883C667.389 86.8346 666.914 84.7513 666.914 82.2383C666.914 79.6862 667.344 77.5638 668.203 75.8711C669.076 74.1654 670.286 72.8893 671.836 72.043C673.385 71.1836 675.189 70.7539 677.246 70.7539ZM677.285 74.9922C676.126 74.9922 675.163 75.3633 674.395 76.1055C673.639 76.8477 673.203 78.013 673.086 79.6016H681.445C681.432 78.7161 681.27 77.9284 680.957 77.2383C680.658 76.5482 680.202 76.0013 679.59 75.5977C678.991 75.194 678.223 74.9922 677.285 74.9922Z" fill="#F59431"/>
<rect x="189.5" y="154.5" width="541" height="67" stroke="black" stroke-dasharray="4 4"/>
<rect x="189.5" y="608.5" width="541" height="67" stroke="black" stroke-dasharray="4 4"/>
<rect x="189.5" y="221.5" width="541" height="38" stroke="black" stroke-dasharray="4 4"/>
<rect x="229.5" y="457.5" width="314" height="40" stroke="black" stroke-dasharray="4 4"/>
<rect x="229.5" y="509.5" width="314" height="64" stroke="black" stroke-dasharray="4 4"/>
<rect x="189.5" y="259.5" width="378" height="349" stroke="black" stroke-dasharray="4 4"/>
<rect x="567.5" y="259.5" width="163" height="349" stroke="black" stroke-dasharray="4 4"/>
<rect x="217.5" y="446.5" width="338" height="138" stroke="black"/>
<path d="M437.324 190.04L428.737 186.243V185.197L437.324 180.926V182.631L430.882 185.646L437.324 188.344V190.04ZM441.736 178.324V181.761C441.736 182.118 441.725 182.467 441.701 182.807C441.684 183.146 441.663 183.41 441.64 183.598H441.754C441.959 183.258 442.211 182.979 442.51 182.763C442.809 182.54 443.143 182.373 443.512 182.262C443.887 182.15 444.285 182.095 444.707 182.095C445.451 182.095 446.084 182.221 446.605 182.473C447.127 182.719 447.525 183.103 447.801 183.624C448.082 184.146 448.223 184.822 448.223 185.654V192H446.157V186.041C446.157 185.285 446.002 184.72 445.691 184.345C445.381 183.964 444.9 183.773 444.25 183.773C443.623 183.773 443.125 183.905 442.756 184.169C442.393 184.427 442.132 184.811 441.974 185.32C441.815 185.824 441.736 186.439 441.736 187.166V192H439.671V178.324H441.736ZM454.99 182.086C455.857 182.086 456.602 182.265 457.223 182.622C457.844 182.979 458.321 183.486 458.655 184.143C458.989 184.799 459.156 185.584 459.156 186.498V187.605H452.661C452.685 188.549 452.937 189.275 453.417 189.785C453.903 190.295 454.583 190.55 455.456 190.55C456.077 190.55 456.634 190.491 457.126 190.374C457.624 190.251 458.137 190.072 458.664 189.838V191.517C458.178 191.745 457.683 191.912 457.179 192.018C456.675 192.123 456.071 192.176 455.368 192.176C454.413 192.176 453.572 191.991 452.846 191.622C452.125 191.247 451.56 190.69 451.149 189.952C450.745 189.214 450.543 188.297 450.543 187.201C450.543 186.111 450.728 185.186 451.097 184.424C451.466 183.662 451.984 183.082 452.652 182.684C453.32 182.285 454.1 182.086 454.99 182.086ZM454.99 183.642C454.34 183.642 453.812 183.853 453.408 184.274C453.01 184.696 452.775 185.314 452.705 186.129H457.135C457.129 185.643 457.047 185.212 456.889 184.837C456.736 184.462 456.502 184.169 456.186 183.958C455.875 183.747 455.477 183.642 454.99 183.642ZM465.3 182.086C466.53 182.086 467.459 182.358 468.086 182.903C468.719 183.448 469.035 184.298 469.035 185.452V192H467.567L467.172 190.62H467.102C466.826 190.972 466.542 191.262 466.249 191.49C465.956 191.719 465.616 191.889 465.229 192C464.849 192.117 464.383 192.176 463.832 192.176C463.252 192.176 462.733 192.07 462.276 191.859C461.819 191.643 461.459 191.314 461.195 190.875C460.932 190.436 460.8 189.879 460.8 189.205C460.8 188.203 461.172 187.45 461.916 186.946C462.666 186.442 463.797 186.164 465.309 186.111L466.996 186.05V185.54C466.996 184.866 466.838 184.386 466.521 184.099C466.211 183.812 465.771 183.668 465.203 183.668C464.717 183.668 464.245 183.738 463.788 183.879C463.331 184.02 462.886 184.192 462.452 184.397L461.784 182.938C462.259 182.687 462.798 182.481 463.401 182.323C464.011 182.165 464.644 182.086 465.3 182.086ZM466.987 187.351L465.73 187.395C464.699 187.43 463.976 187.605 463.56 187.922C463.144 188.238 462.936 188.672 462.936 189.223C462.936 189.703 463.079 190.055 463.366 190.277C463.653 190.494 464.031 190.603 464.5 190.603C465.215 190.603 465.807 190.4 466.275 189.996C466.75 189.586 466.987 188.985 466.987 188.194V187.351ZM475.196 192.176C474.036 192.176 473.104 191.754 472.401 190.91C471.704 190.061 471.355 188.81 471.355 187.157C471.355 185.487 471.71 184.225 472.419 183.369C473.134 182.514 474.074 182.086 475.24 182.086C475.732 182.086 476.163 182.153 476.532 182.288C476.901 182.417 477.218 182.593 477.481 182.815C477.751 183.038 477.979 183.287 478.167 183.562H478.264C478.234 183.381 478.199 183.12 478.158 182.78C478.123 182.435 478.105 182.115 478.105 181.822V178.324H480.18V192H478.562L478.193 190.673H478.105C477.93 190.954 477.707 191.209 477.438 191.438C477.174 191.66 476.857 191.839 476.488 191.974C476.125 192.108 475.694 192.176 475.196 192.176ZM475.776 190.497C476.661 190.497 477.285 190.242 477.648 189.732C478.012 189.223 478.199 188.458 478.211 187.438V187.166C478.211 186.076 478.035 185.241 477.684 184.661C477.332 184.075 476.69 183.782 475.759 183.782C475.015 183.782 474.446 184.084 474.054 184.688C473.667 185.285 473.474 186.12 473.474 187.192C473.474 188.265 473.667 189.085 474.054 189.653C474.446 190.216 475.021 190.497 475.776 190.497ZM487.018 182.086C487.885 182.086 488.629 182.265 489.25 182.622C489.871 182.979 490.349 183.486 490.683 184.143C491.017 184.799 491.184 185.584 491.184 186.498V187.605H484.688C484.712 188.549 484.964 189.275 485.444 189.785C485.931 190.295 486.61 190.55 487.483 190.55C488.104 190.55 488.661 190.491 489.153 190.374C489.651 190.251 490.164 190.072 490.691 189.838V191.517C490.205 191.745 489.71 191.912 489.206 192.018C488.702 192.123 488.099 192.176 487.396 192.176C486.44 192.176 485.6 191.991 484.873 191.622C484.152 191.247 483.587 190.69 483.177 189.952C482.772 189.214 482.57 188.297 482.57 187.201C482.57 186.111 482.755 185.186 483.124 184.424C483.493 183.662 484.012 183.082 484.68 182.684C485.348 182.285 486.127 182.086 487.018 182.086ZM487.018 183.642C486.367 183.642 485.84 183.853 485.436 184.274C485.037 184.696 484.803 185.314 484.732 186.129H489.162C489.156 185.643 489.074 185.212 488.916 184.837C488.764 184.462 488.529 184.169 488.213 183.958C487.902 183.747 487.504 183.642 487.018 183.642ZM498.443 182.086C498.607 182.086 498.786 182.095 498.979 182.112C499.173 182.13 499.34 182.153 499.48 182.183L499.287 184.116C499.164 184.081 499.012 184.055 498.83 184.037C498.654 184.02 498.496 184.011 498.355 184.011C497.986 184.011 497.635 184.072 497.301 184.195C496.967 184.312 496.671 184.494 496.413 184.74C496.155 184.98 495.953 185.282 495.807 185.646C495.66 186.009 495.587 186.431 495.587 186.911V192H493.513V182.271H495.13L495.411 183.984H495.508C495.701 183.639 495.941 183.322 496.229 183.035C496.516 182.748 496.844 182.52 497.213 182.35C497.588 182.174 497.998 182.086 498.443 182.086ZM500.649 188.344L507.092 185.654L500.649 182.631V180.926L509.236 185.197V186.243L500.649 190.04V188.344Z" fill="black"/>
<path d="M440.253 644.04L431.666 640.243V639.197L440.253 634.926V636.631L433.811 639.646L440.253 642.344V644.04ZM447.46 637.844H445.096V646H443.03V637.844H441.439V636.851L443.03 636.244V635.567C443.03 634.741 443.159 634.085 443.417 633.599C443.681 633.112 444.056 632.764 444.542 632.553C445.034 632.336 445.62 632.228 446.3 632.228C446.745 632.228 447.152 632.266 447.521 632.342C447.891 632.412 448.201 632.494 448.453 632.588L447.917 634.152C447.718 634.088 447.495 634.029 447.249 633.977C447.003 633.918 446.739 633.889 446.458 633.889C445.989 633.889 445.644 634.035 445.421 634.328C445.204 634.621 445.096 635.049 445.096 635.611V636.271H447.46V637.844ZM457.734 641.113C457.734 641.922 457.629 642.64 457.418 643.267C457.207 643.894 456.899 644.424 456.495 644.857C456.091 645.285 455.604 645.613 455.036 645.842C454.468 646.064 453.826 646.176 453.111 646.176C452.443 646.176 451.831 646.064 451.274 645.842C450.718 645.613 450.234 645.285 449.824 644.857C449.42 644.424 449.106 643.894 448.884 643.267C448.661 642.64 448.55 641.922 448.55 641.113C448.55 640.041 448.734 639.133 449.104 638.389C449.479 637.639 450.012 637.067 450.703 636.675C451.395 636.282 452.218 636.086 453.173 636.086C454.069 636.086 454.86 636.282 455.546 636.675C456.231 637.067 456.768 637.639 457.154 638.389C457.541 639.139 457.734 640.047 457.734 641.113ZM450.677 641.113C450.677 641.822 450.762 642.429 450.932 642.933C451.107 643.437 451.377 643.823 451.74 644.093C452.104 644.356 452.572 644.488 453.146 644.488C453.721 644.488 454.189 644.356 454.553 644.093C454.916 643.823 455.183 643.437 455.353 642.933C455.522 642.429 455.607 641.822 455.607 641.113C455.607 640.404 455.522 639.804 455.353 639.312C455.183 638.813 454.916 638.436 454.553 638.178C454.189 637.914 453.718 637.782 453.138 637.782C452.282 637.782 451.658 638.069 451.266 638.644C450.873 639.218 450.677 640.041 450.677 641.113ZM468.721 641.113C468.721 641.922 468.615 642.64 468.404 643.267C468.193 643.894 467.886 644.424 467.481 644.857C467.077 645.285 466.591 645.613 466.022 645.842C465.454 646.064 464.812 646.176 464.098 646.176C463.43 646.176 462.817 646.064 462.261 645.842C461.704 645.613 461.221 645.285 460.811 644.857C460.406 644.424 460.093 643.894 459.87 643.267C459.647 642.64 459.536 641.922 459.536 641.113C459.536 640.041 459.721 639.133 460.09 638.389C460.465 637.639 460.998 637.067 461.689 636.675C462.381 636.282 463.204 636.086 464.159 636.086C465.056 636.086 465.847 636.282 466.532 636.675C467.218 637.067 467.754 637.639 468.141 638.389C468.527 639.139 468.721 640.047 468.721 641.113ZM461.663 641.113C461.663 641.822 461.748 642.429 461.918 642.933C462.094 643.437 462.363 643.823 462.727 644.093C463.09 644.356 463.559 644.488 464.133 644.488C464.707 644.488 465.176 644.356 465.539 644.093C465.902 643.823 466.169 643.437 466.339 642.933C466.509 642.429 466.594 641.822 466.594 641.113C466.594 640.404 466.509 639.804 466.339 639.312C466.169 638.813 465.902 638.436 465.539 638.178C465.176 637.914 464.704 637.782 464.124 637.782C463.269 637.782 462.645 638.069 462.252 638.644C461.859 639.218 461.663 640.041 461.663 641.113ZM474.715 644.506C474.984 644.506 475.251 644.482 475.515 644.436C475.778 644.383 476.019 644.321 476.235 644.251V645.815C476.007 645.915 475.711 646 475.348 646.07C474.984 646.141 474.606 646.176 474.214 646.176C473.663 646.176 473.168 646.085 472.729 645.903C472.289 645.716 471.94 645.396 471.683 644.945C471.425 644.494 471.296 643.87 471.296 643.073V637.844H469.969V636.921L471.393 636.191L472.069 634.108H473.37V636.271H476.156V637.844H473.37V643.047C473.37 643.539 473.493 643.905 473.739 644.146C473.985 644.386 474.311 644.506 474.715 644.506ZM482.089 636.086C482.956 636.086 483.7 636.265 484.321 636.622C484.942 636.979 485.42 637.486 485.754 638.143C486.088 638.799 486.255 639.584 486.255 640.498V641.605H479.76C479.783 642.549 480.035 643.275 480.516 643.785C481.002 644.295 481.682 644.55 482.555 644.55C483.176 644.55 483.732 644.491 484.225 644.374C484.723 644.251 485.235 644.072 485.763 643.838V645.517C485.276 645.745 484.781 645.912 484.277 646.018C483.773 646.123 483.17 646.176 482.467 646.176C481.512 646.176 480.671 645.991 479.944 645.622C479.224 645.247 478.658 644.69 478.248 643.952C477.844 643.214 477.642 642.297 477.642 641.201C477.642 640.111 477.826 639.186 478.195 638.424C478.564 637.662 479.083 637.082 479.751 636.684C480.419 636.285 481.198 636.086 482.089 636.086ZM482.089 637.642C481.438 637.642 480.911 637.853 480.507 638.274C480.108 638.696 479.874 639.314 479.804 640.129H484.233C484.228 639.643 484.146 639.212 483.987 638.837C483.835 638.462 483.601 638.169 483.284 637.958C482.974 637.747 482.575 637.642 482.089 637.642ZM493.515 636.086C493.679 636.086 493.857 636.095 494.051 636.112C494.244 636.13 494.411 636.153 494.552 636.183L494.358 638.116C494.235 638.081 494.083 638.055 493.901 638.037C493.726 638.02 493.567 638.011 493.427 638.011C493.058 638.011 492.706 638.072 492.372 638.195C492.038 638.312 491.742 638.494 491.484 638.74C491.227 638.98 491.024 639.282 490.878 639.646C490.731 640.009 490.658 640.431 490.658 640.911V646H488.584V636.271H490.201L490.482 637.984H490.579C490.772 637.639 491.013 637.322 491.3 637.035C491.587 636.748 491.915 636.52 492.284 636.35C492.659 636.174 493.069 636.086 493.515 636.086ZM495.721 642.344L502.163 639.654L495.721 636.631V634.926L504.308 639.197V640.243L495.721 644.04V642.344Z" fill="black"/>
<path d="M452.38 243.04L443.793 239.243V238.197L452.38 233.926V235.631L445.938 238.646L452.38 241.344V243.04ZM459.798 235.086C460.894 235.086 461.746 235.37 462.355 235.938C462.971 236.501 463.278 237.406 463.278 238.654V245H461.213V239.041C461.213 238.285 461.058 237.72 460.747 237.345C460.437 236.964 459.956 236.773 459.306 236.773C458.362 236.773 457.706 237.063 457.337 237.644C456.974 238.224 456.792 239.064 456.792 240.166V245H454.727V235.271H456.335L456.625 236.589H456.739C456.95 236.249 457.211 235.971 457.521 235.754C457.838 235.531 458.189 235.364 458.576 235.253C458.969 235.142 459.376 235.086 459.798 235.086ZM469.984 235.086C471.215 235.086 472.144 235.358 472.771 235.903C473.403 236.448 473.72 237.298 473.72 238.452V245H472.252L471.856 243.62H471.786C471.511 243.972 471.227 244.262 470.934 244.49C470.641 244.719 470.301 244.889 469.914 245C469.533 245.117 469.067 245.176 468.517 245.176C467.937 245.176 467.418 245.07 466.961 244.859C466.504 244.643 466.144 244.314 465.88 243.875C465.616 243.436 465.484 242.879 465.484 242.205C465.484 241.203 465.856 240.45 466.601 239.946C467.351 239.442 468.481 239.164 469.993 239.111L471.681 239.05V238.54C471.681 237.866 471.522 237.386 471.206 237.099C470.896 236.812 470.456 236.668 469.888 236.668C469.401 236.668 468.93 236.738 468.473 236.879C468.016 237.02 467.57 237.192 467.137 237.397L466.469 235.938C466.943 235.687 467.482 235.481 468.086 235.323C468.695 235.165 469.328 235.086 469.984 235.086ZM471.672 240.351L470.415 240.395C469.384 240.43 468.66 240.605 468.244 240.922C467.828 241.238 467.62 241.672 467.62 242.223C467.62 242.703 467.764 243.055 468.051 243.277C468.338 243.494 468.716 243.603 469.185 243.603C469.899 243.603 470.491 243.4 470.96 242.996C471.435 242.586 471.672 241.985 471.672 241.194V240.351ZM478.835 245L475.135 235.271H477.323L479.327 240.983C479.456 241.347 479.573 241.739 479.679 242.161C479.784 242.583 479.857 242.938 479.898 243.225H479.969C480.01 242.926 480.089 242.568 480.206 242.152C480.323 241.73 480.443 241.341 480.566 240.983L482.57 235.271H484.75L481.05 245H478.835ZM485.594 241.344L492.036 238.654L485.594 235.631V233.926L494.181 238.197V239.243L485.594 243.04V241.344Z" fill="black"/>
<path d="M100.297 435.04L91.71 431.243V430.197L100.297 425.926V427.631L93.8545 430.646L100.297 433.344V435.04ZM109.183 434.223C109.183 434.861 109.027 435.4 108.717 435.84C108.406 436.279 107.952 436.613 107.354 436.842C106.763 437.064 106.036 437.176 105.175 437.176C104.495 437.176 103.909 437.126 103.417 437.026C102.931 436.933 102.471 436.786 102.037 436.587V434.803C102.5 435.02 103.019 435.207 103.593 435.365C104.173 435.523 104.721 435.603 105.236 435.603C105.916 435.603 106.405 435.497 106.704 435.286C107.003 435.069 107.152 434.782 107.152 434.425C107.152 434.214 107.091 434.026 106.968 433.862C106.851 433.692 106.628 433.52 106.3 433.344C105.978 433.162 105.503 432.945 104.876 432.693C104.261 432.447 103.742 432.201 103.32 431.955C102.898 431.709 102.579 431.413 102.362 431.067C102.146 430.716 102.037 430.268 102.037 429.723C102.037 428.861 102.377 428.208 103.057 427.763C103.742 427.312 104.647 427.086 105.772 427.086C106.37 427.086 106.933 427.147 107.46 427.271C107.993 427.388 108.515 427.561 109.024 427.789L108.374 429.345C107.935 429.151 107.492 428.993 107.047 428.87C106.607 428.741 106.159 428.677 105.702 428.677C105.169 428.677 104.762 428.759 104.48 428.923C104.205 429.087 104.067 429.321 104.067 429.626C104.067 429.854 104.135 430.048 104.27 430.206C104.404 430.364 104.636 430.522 104.964 430.681C105.298 430.839 105.761 431.035 106.353 431.27C106.933 431.492 107.434 431.727 107.855 431.973C108.283 432.213 108.611 432.509 108.84 432.86C109.068 433.212 109.183 433.666 109.183 434.223ZM115.291 427.086C116.158 427.086 116.902 427.265 117.523 427.622C118.145 427.979 118.622 428.486 118.956 429.143C119.29 429.799 119.457 430.584 119.457 431.498V432.605H112.962C112.985 433.549 113.237 434.275 113.718 434.785C114.204 435.295 114.884 435.55 115.757 435.55C116.378 435.55 116.935 435.491 117.427 435.374C117.925 435.251 118.438 435.072 118.965 434.838V436.517C118.479 436.745 117.983 436.912 117.479 437.018C116.976 437.123 116.372 437.176 115.669 437.176C114.714 437.176 113.873 436.991 113.146 436.622C112.426 436.247 111.86 435.69 111.45 434.952C111.046 434.214 110.844 433.297 110.844 432.201C110.844 431.111 111.028 430.186 111.397 429.424C111.767 428.662 112.285 428.082 112.953 427.684C113.621 427.285 114.4 427.086 115.291 427.086ZM115.291 428.642C114.641 428.642 114.113 428.853 113.709 429.274C113.311 429.696 113.076 430.314 113.006 431.129H117.436C117.43 430.643 117.348 430.212 117.189 429.837C117.037 429.462 116.803 429.169 116.486 428.958C116.176 428.747 115.777 428.642 115.291 428.642ZM125.706 437.176C124.786 437.176 123.989 436.997 123.315 436.64C122.642 436.282 122.123 435.734 121.76 434.996C121.396 434.258 121.215 433.32 121.215 432.184C121.215 431 121.414 430.033 121.812 429.283C122.211 428.533 122.762 427.979 123.465 427.622C124.174 427.265 124.985 427.086 125.899 427.086C126.479 427.086 127.004 427.145 127.473 427.262C127.947 427.373 128.349 427.511 128.677 427.675L128.062 429.327C127.704 429.181 127.338 429.058 126.963 428.958C126.588 428.858 126.228 428.809 125.882 428.809C125.313 428.809 124.839 428.935 124.458 429.187C124.083 429.438 123.802 429.813 123.614 430.312C123.433 430.81 123.342 431.428 123.342 432.166C123.342 432.881 123.436 433.484 123.623 433.977C123.811 434.463 124.089 434.832 124.458 435.084C124.827 435.33 125.281 435.453 125.82 435.453C126.354 435.453 126.831 435.389 127.253 435.26C127.675 435.131 128.073 434.964 128.448 434.759V436.552C128.079 436.763 127.684 436.918 127.262 437.018C126.84 437.123 126.321 437.176 125.706 437.176ZM134.354 435.506C134.624 435.506 134.891 435.482 135.154 435.436C135.418 435.383 135.658 435.321 135.875 435.251V436.815C135.646 436.915 135.351 437 134.987 437.07C134.624 437.141 134.246 437.176 133.854 437.176C133.303 437.176 132.808 437.085 132.368 436.903C131.929 436.716 131.58 436.396 131.322 435.945C131.064 435.494 130.936 434.87 130.936 434.073V428.844H129.608V427.921L131.032 427.191L131.709 425.108H133.01V427.271H135.796V428.844H133.01V434.047C133.01 434.539 133.133 434.905 133.379 435.146C133.625 435.386 133.95 435.506 134.354 435.506ZM139.918 427.271V437H137.853V427.271H139.918ZM138.898 423.544C139.215 423.544 139.487 423.629 139.716 423.799C139.95 423.969 140.067 424.262 140.067 424.678C140.067 425.088 139.95 425.381 139.716 425.557C139.487 425.727 139.215 425.812 138.898 425.812C138.57 425.812 138.292 425.727 138.063 425.557C137.841 425.381 137.729 425.088 137.729 424.678C137.729 424.262 137.841 423.969 138.063 423.799C138.292 423.629 138.57 423.544 138.898 423.544ZM151.493 432.113C151.493 432.922 151.388 433.64 151.177 434.267C150.966 434.894 150.658 435.424 150.254 435.857C149.85 436.285 149.363 436.613 148.795 436.842C148.227 437.064 147.585 437.176 146.87 437.176C146.202 437.176 145.59 437.064 145.033 436.842C144.477 436.613 143.993 436.285 143.583 435.857C143.179 435.424 142.865 434.894 142.643 434.267C142.42 433.64 142.309 432.922 142.309 432.113C142.309 431.041 142.493 430.133 142.862 429.389C143.237 428.639 143.771 428.067 144.462 427.675C145.153 427.282 145.977 427.086 146.932 427.086C147.828 427.086 148.619 427.282 149.305 427.675C149.99 428.067 150.526 428.639 150.913 429.389C151.3 430.139 151.493 431.047 151.493 432.113ZM144.436 432.113C144.436 432.822 144.521 433.429 144.69 433.933C144.866 434.437 145.136 434.823 145.499 435.093C145.862 435.356 146.331 435.488 146.905 435.488C147.479 435.488 147.948 435.356 148.312 435.093C148.675 434.823 148.941 434.437 149.111 433.933C149.281 433.429 149.366 432.822 149.366 432.113C149.366 431.404 149.281 430.804 149.111 430.312C148.941 429.813 148.675 429.436 148.312 429.178C147.948 428.914 147.477 428.782 146.896 428.782C146.041 428.782 145.417 429.069 145.024 429.644C144.632 430.218 144.436 431.041 144.436 432.113ZM158.938 427.086C160.033 427.086 160.886 427.37 161.495 427.938C162.11 428.501 162.418 429.406 162.418 430.654V437H160.353V431.041C160.353 430.285 160.197 429.72 159.887 429.345C159.576 428.964 159.096 428.773 158.445 428.773C157.502 428.773 156.846 429.063 156.477 429.644C156.113 430.224 155.932 431.064 155.932 432.166V437H153.866V427.271H155.475L155.765 428.589H155.879C156.09 428.249 156.351 427.971 156.661 427.754C156.978 427.531 157.329 427.364 157.716 427.253C158.108 427.142 158.516 427.086 158.938 427.086ZM164.677 433.344L171.119 430.654L164.677 427.631V425.926L173.264 430.197V431.243L164.677 435.04V433.344Z" fill="black"/>
<path d="M353.824 480.04L345.237 476.243V475.197L353.824 470.926V472.631L347.382 475.646L353.824 478.344V480.04ZM358.236 468.324V471.761C358.236 472.118 358.225 472.467 358.201 472.807C358.184 473.146 358.163 473.41 358.14 473.598H358.254C358.459 473.258 358.711 472.979 359.01 472.763C359.309 472.54 359.643 472.373 360.012 472.262C360.387 472.15 360.785 472.095 361.207 472.095C361.951 472.095 362.584 472.221 363.105 472.473C363.627 472.719 364.025 473.103 364.301 473.624C364.582 474.146 364.723 474.822 364.723 475.654V482H362.657V476.041C362.657 475.285 362.502 474.72 362.191 474.345C361.881 473.964 361.4 473.773 360.75 473.773C360.123 473.773 359.625 473.905 359.256 474.169C358.893 474.427 358.632 474.811 358.474 475.32C358.315 475.824 358.236 476.439 358.236 477.166V482H356.171V468.324H358.236ZM371.49 472.086C372.357 472.086 373.102 472.265 373.723 472.622C374.344 472.979 374.821 473.486 375.155 474.143C375.489 474.799 375.656 475.584 375.656 476.498V477.605H369.161C369.185 478.549 369.437 479.275 369.917 479.785C370.403 480.295 371.083 480.55 371.956 480.55C372.577 480.55 373.134 480.491 373.626 480.374C374.124 480.251 374.637 480.072 375.164 479.838V481.517C374.678 481.745 374.183 481.912 373.679 482.018C373.175 482.123 372.571 482.176 371.868 482.176C370.913 482.176 370.072 481.991 369.346 481.622C368.625 481.247 368.06 480.69 367.649 479.952C367.245 479.214 367.043 478.297 367.043 477.201C367.043 476.111 367.228 475.186 367.597 474.424C367.966 473.662 368.484 473.082 369.152 472.684C369.82 472.285 370.6 472.086 371.49 472.086ZM371.49 473.642C370.84 473.642 370.312 473.853 369.908 474.274C369.51 474.696 369.275 475.314 369.205 476.129H373.635C373.629 475.643 373.547 475.212 373.389 474.837C373.236 474.462 373.002 474.169 372.686 473.958C372.375 473.747 371.977 473.642 371.49 473.642ZM381.8 472.086C383.03 472.086 383.959 472.358 384.586 472.903C385.219 473.448 385.535 474.298 385.535 475.452V482H384.067L383.672 480.62H383.602C383.326 480.972 383.042 481.262 382.749 481.49C382.456 481.719 382.116 481.889 381.729 482C381.349 482.117 380.883 482.176 380.332 482.176C379.752 482.176 379.233 482.07 378.776 481.859C378.319 481.643 377.959 481.314 377.695 480.875C377.432 480.436 377.3 479.879 377.3 479.205C377.3 478.203 377.672 477.45 378.416 476.946C379.166 476.442 380.297 476.164 381.809 476.111L383.496 476.05V475.54C383.496 474.866 383.338 474.386 383.021 474.099C382.711 473.812 382.271 473.668 381.703 473.668C381.217 473.668 380.745 473.738 380.288 473.879C379.831 474.02 379.386 474.192 378.952 474.397L378.284 472.938C378.759 472.687 379.298 472.481 379.901 472.323C380.511 472.165 381.144 472.086 381.8 472.086ZM383.487 477.351L382.23 477.395C381.199 477.43 380.476 477.605 380.06 477.922C379.644 478.238 379.436 478.672 379.436 479.223C379.436 479.703 379.579 480.055 379.866 480.277C380.153 480.494 380.531 480.603 381 480.603C381.715 480.603 382.307 480.4 382.775 479.996C383.25 479.586 383.487 478.985 383.487 478.194V477.351ZM391.696 482.176C390.536 482.176 389.604 481.754 388.901 480.91C388.204 480.061 387.855 478.81 387.855 477.157C387.855 475.487 388.21 474.225 388.919 473.369C389.634 472.514 390.574 472.086 391.74 472.086C392.232 472.086 392.663 472.153 393.032 472.288C393.401 472.417 393.718 472.593 393.981 472.815C394.251 473.038 394.479 473.287 394.667 473.562H394.764C394.734 473.381 394.699 473.12 394.658 472.78C394.623 472.435 394.605 472.115 394.605 471.822V468.324H396.68V482H395.062L394.693 480.673H394.605C394.43 480.954 394.207 481.209 393.938 481.438C393.674 481.66 393.357 481.839 392.988 481.974C392.625 482.108 392.194 482.176 391.696 482.176ZM392.276 480.497C393.161 480.497 393.785 480.242 394.148 479.732C394.512 479.223 394.699 478.458 394.711 477.438V477.166C394.711 476.076 394.535 475.241 394.184 474.661C393.832 474.075 393.19 473.782 392.259 473.782C391.515 473.782 390.946 474.084 390.554 474.688C390.167 475.285 389.974 476.12 389.974 477.192C389.974 478.265 390.167 479.085 390.554 479.653C390.946 480.216 391.521 480.497 392.276 480.497ZM403.518 472.086C404.385 472.086 405.129 472.265 405.75 472.622C406.371 472.979 406.849 473.486 407.183 474.143C407.517 474.799 407.684 475.584 407.684 476.498V477.605H401.188C401.212 478.549 401.464 479.275 401.944 479.785C402.431 480.295 403.11 480.55 403.983 480.55C404.604 480.55 405.161 480.491 405.653 480.374C406.151 480.251 406.664 480.072 407.191 479.838V481.517C406.705 481.745 406.21 481.912 405.706 482.018C405.202 482.123 404.599 482.176 403.896 482.176C402.94 482.176 402.1 481.991 401.373 481.622C400.652 481.247 400.087 480.69 399.677 479.952C399.272 479.214 399.07 478.297 399.07 477.201C399.07 476.111 399.255 475.186 399.624 474.424C399.993 473.662 400.512 473.082 401.18 472.684C401.848 472.285 402.627 472.086 403.518 472.086ZM403.518 473.642C402.867 473.642 402.34 473.853 401.936 474.274C401.537 474.696 401.303 475.314 401.232 476.129H405.662C405.656 475.643 405.574 475.212 405.416 474.837C405.264 474.462 405.029 474.169 404.713 473.958C404.402 473.747 404.004 473.642 403.518 473.642ZM414.943 472.086C415.107 472.086 415.286 472.095 415.479 472.112C415.673 472.13 415.84 472.153 415.98 472.183L415.787 474.116C415.664 474.081 415.512 474.055 415.33 474.037C415.154 474.02 414.996 474.011 414.855 474.011C414.486 474.011 414.135 474.072 413.801 474.195C413.467 474.312 413.171 474.494 412.913 474.74C412.655 474.98 412.453 475.282 412.307 475.646C412.16 476.009 412.087 476.431 412.087 476.911V482H410.013V472.271H411.63L411.911 473.984H412.008C412.201 473.639 412.441 473.322 412.729 473.035C413.016 472.748 413.344 472.52 413.713 472.35C414.088 472.174 414.498 472.086 414.943 472.086ZM417.149 478.344L423.592 475.654L417.149 472.631V470.926L425.736 475.197V476.243L417.149 480.04V478.344Z" fill="black"/>
<rect x="229.5" y="294.5" width="314" height="40" stroke="black" stroke-dasharray="4 4"/>
<rect x="229.5" y="346.5" width="314" height="63" stroke="black" stroke-dasharray="4 4"/>
<rect x="217.5" y="282.5" width="338" height="139" stroke="black"/>
<path d="M353.824 317.04L345.237 313.243V312.197L353.824 307.926V309.631L347.382 312.646L353.824 315.344V317.04ZM358.236 305.324V308.761C358.236 309.118 358.225 309.467 358.201 309.807C358.184 310.146 358.163 310.41 358.14 310.598H358.254C358.459 310.258 358.711 309.979 359.01 309.763C359.309 309.54 359.643 309.373 360.012 309.262C360.387 309.15 360.785 309.095 361.207 309.095C361.951 309.095 362.584 309.221 363.105 309.473C363.627 309.719 364.025 310.103 364.301 310.624C364.582 311.146 364.723 311.822 364.723 312.654V319H362.657V313.041C362.657 312.285 362.502 311.72 362.191 311.345C361.881 310.964 361.4 310.773 360.75 310.773C360.123 310.773 359.625 310.905 359.256 311.169C358.893 311.427 358.632 311.811 358.474 312.32C358.315 312.824 358.236 313.439 358.236 314.166V319H356.171V305.324H358.236ZM371.49 309.086C372.357 309.086 373.102 309.265 373.723 309.622C374.344 309.979 374.821 310.486 375.155 311.143C375.489 311.799 375.656 312.584 375.656 313.498V314.605H369.161C369.185 315.549 369.437 316.275 369.917 316.785C370.403 317.295 371.083 317.55 371.956 317.55C372.577 317.55 373.134 317.491 373.626 317.374C374.124 317.251 374.637 317.072 375.164 316.838V318.517C374.678 318.745 374.183 318.912 373.679 319.018C373.175 319.123 372.571 319.176 371.868 319.176C370.913 319.176 370.072 318.991 369.346 318.622C368.625 318.247 368.06 317.69 367.649 316.952C367.245 316.214 367.043 315.297 367.043 314.201C367.043 313.111 367.228 312.186 367.597 311.424C367.966 310.662 368.484 310.082 369.152 309.684C369.82 309.285 370.6 309.086 371.49 309.086ZM371.49 310.642C370.84 310.642 370.312 310.853 369.908 311.274C369.51 311.696 369.275 312.314 369.205 313.129H373.635C373.629 312.643 373.547 312.212 373.389 311.837C373.236 311.462 373.002 311.169 372.686 310.958C372.375 310.747 371.977 310.642 371.49 310.642ZM381.8 309.086C383.03 309.086 383.959 309.358 384.586 309.903C385.219 310.448 385.535 311.298 385.535 312.452V319H384.067L383.672 317.62H383.602C383.326 317.972 383.042 318.262 382.749 318.49C382.456 318.719 382.116 318.889 381.729 319C381.349 319.117 380.883 319.176 380.332 319.176C379.752 319.176 379.233 319.07 378.776 318.859C378.319 318.643 377.959 318.314 377.695 317.875C377.432 317.436 377.3 316.879 377.3 316.205C377.3 315.203 377.672 314.45 378.416 313.946C379.166 313.442 380.297 313.164 381.809 313.111L383.496 313.05V312.54C383.496 311.866 383.338 311.386 383.021 311.099C382.711 310.812 382.271 310.668 381.703 310.668C381.217 310.668 380.745 310.738 380.288 310.879C379.831 311.02 379.386 311.192 378.952 311.397L378.284 309.938C378.759 309.687 379.298 309.481 379.901 309.323C380.511 309.165 381.144 309.086 381.8 309.086ZM383.487 314.351L382.23 314.395C381.199 314.43 380.476 314.605 380.06 314.922C379.644 315.238 379.436 315.672 379.436 316.223C379.436 316.703 379.579 317.055 379.866 317.277C380.153 317.494 380.531 317.603 381 317.603C381.715 317.603 382.307 317.4 382.775 316.996C383.25 316.586 383.487 315.985 383.487 315.194V314.351ZM391.696 319.176C390.536 319.176 389.604 318.754 388.901 317.91C388.204 317.061 387.855 315.81 387.855 314.157C387.855 312.487 388.21 311.225 388.919 310.369C389.634 309.514 390.574 309.086 391.74 309.086C392.232 309.086 392.663 309.153 393.032 309.288C393.401 309.417 393.718 309.593 393.981 309.815C394.251 310.038 394.479 310.287 394.667 310.562H394.764C394.734 310.381 394.699 310.12 394.658 309.78C394.623 309.435 394.605 309.115 394.605 308.822V305.324H396.68V319H395.062L394.693 317.673H394.605C394.43 317.954 394.207 318.209 393.938 318.438C393.674 318.66 393.357 318.839 392.988 318.974C392.625 319.108 392.194 319.176 391.696 319.176ZM392.276 317.497C393.161 317.497 393.785 317.242 394.148 316.732C394.512 316.223 394.699 315.458 394.711 314.438V314.166C394.711 313.076 394.535 312.241 394.184 311.661C393.832 311.075 393.19 310.782 392.259 310.782C391.515 310.782 390.946 311.084 390.554 311.688C390.167 312.285 389.974 313.12 389.974 314.192C389.974 315.265 390.167 316.085 390.554 316.653C390.946 317.216 391.521 317.497 392.276 317.497ZM403.518 309.086C404.385 309.086 405.129 309.265 405.75 309.622C406.371 309.979 406.849 310.486 407.183 311.143C407.517 311.799 407.684 312.584 407.684 313.498V314.605H401.188C401.212 315.549 401.464 316.275 401.944 316.785C402.431 317.295 403.11 317.55 403.983 317.55C404.604 317.55 405.161 317.491 405.653 317.374C406.151 317.251 406.664 317.072 407.191 316.838V318.517C406.705 318.745 406.21 318.912 405.706 319.018C405.202 319.123 404.599 319.176 403.896 319.176C402.94 319.176 402.1 318.991 401.373 318.622C400.652 318.247 400.087 317.69 399.677 316.952C399.272 316.214 399.07 315.297 399.07 314.201C399.07 313.111 399.255 312.186 399.624 311.424C399.993 310.662 400.512 310.082 401.18 309.684C401.848 309.285 402.627 309.086 403.518 309.086ZM403.518 310.642C402.867 310.642 402.34 310.853 401.936 311.274C401.537 311.696 401.303 312.314 401.232 313.129H405.662C405.656 312.643 405.574 312.212 405.416 311.837C405.264 311.462 405.029 311.169 404.713 310.958C404.402 310.747 404.004 310.642 403.518 310.642ZM414.943 309.086C415.107 309.086 415.286 309.095 415.479 309.112C415.673 309.13 415.84 309.153 415.98 309.183L415.787 311.116C415.664 311.081 415.512 311.055 415.33 311.037C415.154 311.02 414.996 311.011 414.855 311.011C414.486 311.011 414.135 311.072 413.801 311.195C413.467 311.312 413.171 311.494 412.913 311.74C412.655 311.98 412.453 312.282 412.307 312.646C412.16 313.009 412.087 313.431 412.087 313.911V319H410.013V309.271H411.63L411.911 310.984H412.008C412.201 310.639 412.441 310.322 412.729 310.035C413.016 309.748 413.344 309.52 413.713 309.35C414.088 309.174 414.498 309.086 414.943 309.086ZM417.149 315.344L423.592 312.654L417.149 309.631V307.926L425.736 312.197V313.243L417.149 317.04V315.344Z" fill="black"/>
<path d="M358.278 380.04L349.691 376.243V375.197L358.278 370.926V372.631L351.836 375.646L358.278 378.344V380.04ZM364.439 372.086C365.67 372.086 366.599 372.358 367.226 372.903C367.858 373.448 368.175 374.298 368.175 375.452V382H366.707L366.312 380.62H366.241C365.966 380.972 365.682 381.262 365.389 381.49C365.096 381.719 364.756 381.889 364.369 382C363.988 382.117 363.522 382.176 362.972 382.176C362.392 382.176 361.873 382.07 361.416 381.859C360.959 381.643 360.599 381.314 360.335 380.875C360.071 380.436 359.939 379.879 359.939 379.205C359.939 378.203 360.312 377.45 361.056 376.946C361.806 376.442 362.937 376.164 364.448 376.111L366.136 376.05V375.54C366.136 374.866 365.978 374.386 365.661 374.099C365.351 373.812 364.911 373.668 364.343 373.668C363.856 373.668 363.385 373.738 362.928 373.879C362.471 374.02 362.025 374.192 361.592 374.397L360.924 372.938C361.398 372.687 361.938 372.481 362.541 372.323C363.15 372.165 363.783 372.086 364.439 372.086ZM366.127 377.351L364.87 377.395C363.839 377.43 363.115 377.605 362.699 377.922C362.283 378.238 362.075 378.672 362.075 379.223C362.075 379.703 362.219 380.055 362.506 380.277C362.793 380.494 363.171 380.603 363.64 380.603C364.354 380.603 364.946 380.4 365.415 379.996C365.89 379.586 366.127 378.985 366.127 378.194V377.351ZM375.997 372.086C376.161 372.086 376.34 372.095 376.533 372.112C376.727 372.13 376.894 372.153 377.034 372.183L376.841 374.116C376.718 374.081 376.565 374.055 376.384 374.037C376.208 374.02 376.05 374.011 375.909 374.011C375.54 374.011 375.188 374.072 374.854 374.195C374.521 374.312 374.225 374.494 373.967 374.74C373.709 374.98 373.507 375.282 373.36 375.646C373.214 376.009 373.141 376.431 373.141 376.911V382H371.066V372.271H372.684L372.965 373.984H373.062C373.255 373.639 373.495 373.322 373.782 373.035C374.069 372.748 374.397 372.52 374.767 372.35C375.142 372.174 375.552 372.086 375.997 372.086ZM382.457 380.506C382.727 380.506 382.993 380.482 383.257 380.436C383.521 380.383 383.761 380.321 383.978 380.251V381.815C383.749 381.915 383.453 382 383.09 382.07C382.727 382.141 382.349 382.176 381.956 382.176C381.405 382.176 380.91 382.085 380.471 381.903C380.031 381.716 379.683 381.396 379.425 380.945C379.167 380.494 379.038 379.87 379.038 379.073V373.844H377.711V372.921L379.135 372.191L379.812 370.108H381.112V372.271H383.898V373.844H381.112V379.047C381.112 379.539 381.235 379.905 381.481 380.146C381.728 380.386 382.053 380.506 382.457 380.506ZM388.021 372.271V382H385.955V372.271H388.021ZM387.001 368.544C387.317 368.544 387.59 368.629 387.818 368.799C388.053 368.969 388.17 369.262 388.17 369.678C388.17 370.088 388.053 370.381 387.818 370.557C387.59 370.727 387.317 370.812 387.001 370.812C386.673 370.812 386.395 370.727 386.166 370.557C385.943 370.381 385.832 370.088 385.832 369.678C385.832 369.262 385.943 368.969 386.166 368.799C386.395 368.629 386.673 368.544 387.001 368.544ZM394.902 382.176C393.982 382.176 393.186 381.997 392.512 381.64C391.838 381.282 391.319 380.734 390.956 379.996C390.593 379.258 390.411 378.32 390.411 377.184C390.411 376 390.61 375.033 391.009 374.283C391.407 373.533 391.958 372.979 392.661 372.622C393.37 372.265 394.182 372.086 395.096 372.086C395.676 372.086 396.2 372.145 396.669 372.262C397.144 372.373 397.545 372.511 397.873 372.675L397.258 374.327C396.9 374.181 396.534 374.058 396.159 373.958C395.784 373.858 395.424 373.809 395.078 373.809C394.51 373.809 394.035 373.935 393.654 374.187C393.279 374.438 392.998 374.813 392.811 375.312C392.629 375.81 392.538 376.428 392.538 377.166C392.538 377.881 392.632 378.484 392.819 378.977C393.007 379.463 393.285 379.832 393.654 380.084C394.023 380.33 394.478 380.453 395.017 380.453C395.55 380.453 396.027 380.389 396.449 380.26C396.871 380.131 397.27 379.964 397.645 379.759V381.552C397.275 381.763 396.88 381.918 396.458 382.018C396.036 382.123 395.518 382.176 394.902 382.176ZM402.004 382H399.93V368.324H402.004V382ZM408.833 372.086C409.7 372.086 410.444 372.265 411.065 372.622C411.687 372.979 412.164 373.486 412.498 374.143C412.832 374.799 412.999 375.584 412.999 376.498V377.605H406.504C406.527 378.549 406.779 379.275 407.26 379.785C407.746 380.295 408.426 380.55 409.299 380.55C409.92 380.55 410.477 380.491 410.969 380.374C411.467 380.251 411.979 380.072 412.507 379.838V381.517C412.021 381.745 411.525 381.912 411.021 382.018C410.518 382.123 409.914 382.176 409.211 382.176C408.256 382.176 407.415 381.991 406.688 381.622C405.968 381.247 405.402 380.69 404.992 379.952C404.588 379.214 404.386 378.297 404.386 377.201C404.386 376.111 404.57 375.186 404.939 374.424C405.309 373.662 405.827 373.082 406.495 372.684C407.163 372.285 407.942 372.086 408.833 372.086ZM408.833 373.642C408.183 373.642 407.655 373.853 407.251 374.274C406.853 374.696 406.618 375.314 406.548 376.129H410.978C410.972 375.643 410.89 375.212 410.731 374.837C410.579 374.462 410.345 374.169 410.028 373.958C409.718 373.747 409.319 373.642 408.833 373.642ZM414.695 378.344L421.138 375.654L414.695 372.631V370.926L423.282 375.197V376.243L414.695 380.04V378.344Z" fill="black"/>
<path d="M625.217 436.04L616.63 432.243V431.197L625.217 426.926V428.631L618.774 431.646L625.217 434.344V436.04ZM631.378 428.086C632.608 428.086 633.537 428.358 634.164 428.903C634.797 429.448 635.113 430.298 635.113 431.452V438H633.646L633.25 436.62H633.18C632.904 436.972 632.62 437.262 632.327 437.49C632.034 437.719 631.694 437.889 631.308 438C630.927 438.117 630.461 438.176 629.91 438.176C629.33 438.176 628.812 438.07 628.354 437.859C627.897 437.643 627.537 437.314 627.273 436.875C627.01 436.436 626.878 435.879 626.878 435.205C626.878 434.203 627.25 433.45 627.994 432.946C628.744 432.442 629.875 432.164 631.387 432.111L633.074 432.05V431.54C633.074 430.866 632.916 430.386 632.6 430.099C632.289 429.812 631.85 429.668 631.281 429.668C630.795 429.668 630.323 429.738 629.866 429.879C629.409 430.02 628.964 430.192 628.53 430.397L627.862 428.938C628.337 428.687 628.876 428.481 629.479 428.323C630.089 428.165 630.722 428.086 631.378 428.086ZM633.065 433.351L631.809 433.395C630.777 433.43 630.054 433.605 629.638 433.922C629.222 434.238 629.014 434.672 629.014 435.223C629.014 435.703 629.157 436.055 629.444 436.277C629.731 436.494 630.109 436.603 630.578 436.603C631.293 436.603 631.885 436.4 632.354 435.996C632.828 435.586 633.065 434.985 633.065 434.194V433.351ZM644.544 435.223C644.544 435.861 644.389 436.4 644.078 436.84C643.768 437.279 643.313 437.613 642.716 437.842C642.124 438.064 641.397 438.176 640.536 438.176C639.856 438.176 639.271 438.126 638.778 438.026C638.292 437.933 637.832 437.786 637.398 437.587V435.803C637.861 436.02 638.38 436.207 638.954 436.365C639.534 436.523 640.082 436.603 640.598 436.603C641.277 436.603 641.767 436.497 642.065 436.286C642.364 436.069 642.514 435.782 642.514 435.425C642.514 435.214 642.452 435.026 642.329 434.862C642.212 434.692 641.989 434.52 641.661 434.344C641.339 434.162 640.864 433.945 640.237 433.693C639.622 433.447 639.104 433.201 638.682 432.955C638.26 432.709 637.94 432.413 637.724 432.067C637.507 431.716 637.398 431.268 637.398 430.723C637.398 429.861 637.738 429.208 638.418 428.763C639.104 428.312 640.009 428.086 641.134 428.086C641.731 428.086 642.294 428.147 642.821 428.271C643.354 428.388 643.876 428.561 644.386 428.789L643.735 430.345C643.296 430.151 642.854 429.993 642.408 429.87C641.969 429.741 641.521 429.677 641.063 429.677C640.53 429.677 640.123 429.759 639.842 429.923C639.566 430.087 639.429 430.321 639.429 430.626C639.429 430.854 639.496 431.048 639.631 431.206C639.766 431.364 639.997 431.522 640.325 431.681C640.659 431.839 641.122 432.035 641.714 432.27C642.294 432.492 642.795 432.727 643.217 432.973C643.645 433.213 643.973 433.509 644.201 433.86C644.43 434.212 644.544 434.666 644.544 435.223ZM648.842 428.271V438H646.776V428.271H648.842ZM647.822 424.544C648.139 424.544 648.411 424.629 648.64 424.799C648.874 424.969 648.991 425.262 648.991 425.678C648.991 426.088 648.874 426.381 648.64 426.557C648.411 426.727 648.139 426.812 647.822 426.812C647.494 426.812 647.216 426.727 646.987 426.557C646.765 426.381 646.653 426.088 646.653 425.678C646.653 425.262 646.765 424.969 646.987 424.799C647.216 424.629 647.494 424.544 647.822 424.544ZM655.073 438.176C653.913 438.176 652.981 437.754 652.278 436.91C651.581 436.061 651.232 434.81 651.232 433.157C651.232 431.487 651.587 430.225 652.296 429.369C653.011 428.514 653.951 428.086 655.117 428.086C655.609 428.086 656.04 428.153 656.409 428.288C656.778 428.417 657.095 428.593 657.358 428.815C657.628 429.038 657.856 429.287 658.044 429.562H658.141C658.111 429.381 658.076 429.12 658.035 428.78C658 428.435 657.982 428.115 657.982 427.822V424.324H660.057V438H658.439L658.07 436.673H657.982C657.807 436.954 657.584 437.209 657.314 437.438C657.051 437.66 656.734 437.839 656.365 437.974C656.002 438.108 655.571 438.176 655.073 438.176ZM655.653 436.497C656.538 436.497 657.162 436.242 657.525 435.732C657.889 435.223 658.076 434.458 658.088 433.438V433.166C658.088 432.076 657.912 431.241 657.561 430.661C657.209 430.075 656.567 429.782 655.636 429.782C654.892 429.782 654.323 430.084 653.931 430.688C653.544 431.285 653.351 432.12 653.351 433.192C653.351 434.265 653.544 435.085 653.931 435.653C654.323 436.216 654.897 436.497 655.653 436.497ZM666.895 428.086C667.762 428.086 668.506 428.265 669.127 428.622C669.748 428.979 670.226 429.486 670.56 430.143C670.894 430.799 671.061 431.584 671.061 432.498V433.605H664.565C664.589 434.549 664.841 435.275 665.321 435.785C665.808 436.295 666.487 436.55 667.36 436.55C667.981 436.55 668.538 436.491 669.03 436.374C669.528 436.251 670.041 436.072 670.568 435.838V437.517C670.082 437.745 669.587 437.912 669.083 438.018C668.579 438.123 667.976 438.176 667.272 438.176C666.317 438.176 665.477 437.991 664.75 437.622C664.029 437.247 663.464 436.69 663.054 435.952C662.649 435.214 662.447 434.297 662.447 433.201C662.447 432.111 662.632 431.186 663.001 430.424C663.37 429.662 663.889 429.082 664.557 428.684C665.225 428.285 666.004 428.086 666.895 428.086ZM666.895 429.642C666.244 429.642 665.717 429.853 665.312 430.274C664.914 430.696 664.68 431.314 664.609 432.129H669.039C669.033 431.643 668.951 431.212 668.793 430.837C668.641 430.462 668.406 430.169 668.09 429.958C667.779 429.747 667.381 429.642 666.895 429.642ZM672.757 434.344L679.199 431.654L672.757 428.631V426.926L681.344 431.197V432.243L672.757 436.04V434.344Z" fill="black"/>
<path d="M358.278 544.04L349.691 540.243V539.197L358.278 534.926V536.631L351.836 539.646L358.278 542.344V544.04ZM364.439 536.086C365.67 536.086 366.599 536.358 367.226 536.903C367.858 537.448 368.175 538.298 368.175 539.452V546H366.707L366.312 544.62H366.241C365.966 544.972 365.682 545.262 365.389 545.49C365.096 545.719 364.756 545.889 364.369 546C363.988 546.117 363.522 546.176 362.972 546.176C362.392 546.176 361.873 546.07 361.416 545.859C360.959 545.643 360.599 545.314 360.335 544.875C360.071 544.436 359.939 543.879 359.939 543.205C359.939 542.203 360.312 541.45 361.056 540.946C361.806 540.442 362.937 540.164 364.448 540.111L366.136 540.05V539.54C366.136 538.866 365.978 538.386 365.661 538.099C365.351 537.812 364.911 537.668 364.343 537.668C363.856 537.668 363.385 537.738 362.928 537.879C362.471 538.02 362.025 538.192 361.592 538.397L360.924 536.938C361.398 536.687 361.938 536.481 362.541 536.323C363.15 536.165 363.783 536.086 364.439 536.086ZM366.127 541.351L364.87 541.395C363.839 541.43 363.115 541.605 362.699 541.922C362.283 542.238 362.075 542.672 362.075 543.223C362.075 543.703 362.219 544.055 362.506 544.277C362.793 544.494 363.171 544.603 363.64 544.603C364.354 544.603 364.946 544.4 365.415 543.996C365.89 543.586 366.127 542.985 366.127 542.194V541.351ZM375.997 536.086C376.161 536.086 376.34 536.095 376.533 536.112C376.727 536.13 376.894 536.153 377.034 536.183L376.841 538.116C376.718 538.081 376.565 538.055 376.384 538.037C376.208 538.02 376.05 538.011 375.909 538.011C375.54 538.011 375.188 538.072 374.854 538.195C374.521 538.312 374.225 538.494 373.967 538.74C373.709 538.98 373.507 539.282 373.36 539.646C373.214 540.009 373.141 540.431 373.141 540.911V546H371.066V536.271H372.684L372.965 537.984H373.062C373.255 537.639 373.495 537.322 373.782 537.035C374.069 536.748 374.397 536.52 374.767 536.35C375.142 536.174 375.552 536.086 375.997 536.086ZM382.457 544.506C382.727 544.506 382.993 544.482 383.257 544.436C383.521 544.383 383.761 544.321 383.978 544.251V545.815C383.749 545.915 383.453 546 383.09 546.07C382.727 546.141 382.349 546.176 381.956 546.176C381.405 546.176 380.91 546.085 380.471 545.903C380.031 545.716 379.683 545.396 379.425 544.945C379.167 544.494 379.038 543.87 379.038 543.073V537.844H377.711V536.921L379.135 536.191L379.812 534.108H381.112V536.271H383.898V537.844H381.112V543.047C381.112 543.539 381.235 543.905 381.481 544.146C381.728 544.386 382.053 544.506 382.457 544.506ZM388.021 536.271V546H385.955V536.271H388.021ZM387.001 532.544C387.317 532.544 387.59 532.629 387.818 532.799C388.053 532.969 388.17 533.262 388.17 533.678C388.17 534.088 388.053 534.381 387.818 534.557C387.59 534.727 387.317 534.812 387.001 534.812C386.673 534.812 386.395 534.727 386.166 534.557C385.943 534.381 385.832 534.088 385.832 533.678C385.832 533.262 385.943 532.969 386.166 532.799C386.395 532.629 386.673 532.544 387.001 532.544ZM394.902 546.176C393.982 546.176 393.186 545.997 392.512 545.64C391.838 545.282 391.319 544.734 390.956 543.996C390.593 543.258 390.411 542.32 390.411 541.184C390.411 540 390.61 539.033 391.009 538.283C391.407 537.533 391.958 536.979 392.661 536.622C393.37 536.265 394.182 536.086 395.096 536.086C395.676 536.086 396.2 536.145 396.669 536.262C397.144 536.373 397.545 536.511 397.873 536.675L397.258 538.327C396.9 538.181 396.534 538.058 396.159 537.958C395.784 537.858 395.424 537.809 395.078 537.809C394.51 537.809 394.035 537.935 393.654 538.187C393.279 538.438 392.998 538.813 392.811 539.312C392.629 539.81 392.538 540.428 392.538 541.166C392.538 541.881 392.632 542.484 392.819 542.977C393.007 543.463 393.285 543.832 393.654 544.084C394.023 544.33 394.478 544.453 395.017 544.453C395.55 544.453 396.027 544.389 396.449 544.26C396.871 544.131 397.27 543.964 397.645 543.759V545.552C397.275 545.763 396.88 545.918 396.458 546.018C396.036 546.123 395.518 546.176 394.902 546.176ZM402.004 546H399.93V532.324H402.004V546ZM408.833 536.086C409.7 536.086 410.444 536.265 411.065 536.622C411.687 536.979 412.164 537.486 412.498 538.143C412.832 538.799 412.999 539.584 412.999 540.498V541.605H406.504C406.527 542.549 406.779 543.275 407.26 543.785C407.746 544.295 408.426 544.55 409.299 544.55C409.92 544.55 410.477 544.491 410.969 544.374C411.467 544.251 411.979 544.072 412.507 543.838V545.517C412.021 545.745 411.525 545.912 411.021 546.018C410.518 546.123 409.914 546.176 409.211 546.176C408.256 546.176 407.415 545.991 406.688 545.622C405.968 545.247 405.402 544.69 404.992 543.952C404.588 543.214 404.386 542.297 404.386 541.201C404.386 540.111 404.57 539.186 404.939 538.424C405.309 537.662 405.827 537.082 406.495 536.684C407.163 536.285 407.942 536.086 408.833 536.086ZM408.833 537.642C408.183 537.642 407.655 537.853 407.251 538.274C406.853 538.696 406.618 539.314 406.548 540.129H410.978C410.972 539.643 410.89 539.212 410.731 538.837C410.579 538.462 410.345 538.169 410.028 537.958C409.718 537.747 409.319 537.642 408.833 537.642ZM414.695 542.344L421.138 539.654L414.695 536.631V534.926L423.282 539.197V540.243L414.695 544.04V542.344Z" fill="black"/>
<path d="M205.707 353.707C206.098 353.317 206.098 352.683 205.707 352.293L199.343 345.929C198.953 345.538 198.319 345.538 197.929 345.929C197.538 346.319 197.538 346.953 197.929 347.343L203.586 353L197.929 358.657C197.538 359.047 197.538 359.681 197.929 360.071C198.319 360.462 198.953 360.462 199.343 360.071L205.707 353.707ZM52 353V352H51V353H52ZM52 513H51V514H52V513ZM205.707 513.707C206.098 513.317 206.098 512.683 205.707 512.293L199.343 505.929C198.953 505.538 198.319 505.538 197.929 505.929C197.538 506.319 197.538 506.953 197.929 507.343L203.586 513L197.929 518.657C197.538 519.047 197.538 519.681 197.929 520.071C198.319 520.462 198.953 520.462 199.343 520.071L205.707 513.707ZM205 352H52V354H205V352ZM51 353V513H53V353H51ZM52 514H205V512H52V514Z" fill="#F59431"/>
</svg>
